<svg width="183" height="38" viewBox="0 0 183 38" fill="none" xmlns="http://www.w3.org/2000/svg">
<path d="M18.8267 5.25736e-05C16.1445 0.00412633 13.4943 0.585722 11.0537 1.70608C8.40449 2.91973 6.07003 4.73431 4.23296 7.0078C2.39588 9.28128 1.10602 11.952 0.464272 14.8111C-0.177472 17.6702 -0.15369 20.6402 0.533764 23.4885C1.22122 26.3368 2.5537 28.9861 4.42695 31.2295C6.3002 33.4728 8.66341 35.2493 11.3317 36.4197C14 37.5902 16.901 38.1228 19.8077 37.9762C22.7145 37.8296 25.5481 37.0077 28.0869 35.5747C30.6258 34.1416 32.801 32.1362 34.4423 29.7156C34.486 29.6513 34.5168 29.5789 34.5327 29.5026C34.5487 29.4264 34.5496 29.3478 34.5353 29.2712C34.5211 29.1946 34.492 29.1214 34.4497 29.0561C34.4075 28.9908 34.3528 28.9347 34.2889 28.8907L19.7991 18.9153L32.4084 6.61932C32.4641 6.56516 32.5085 6.50053 32.5394 6.42905C32.5702 6.35757 32.5867 6.28048 32.588 6.20256C32.5893 6.12465 32.5753 6.04727 32.5469 5.97479C32.5185 5.90231 32.4762 5.83624 32.4224 5.78024C30.6584 3.94617 28.5455 2.48902 26.2098 1.49588C23.8741 0.502742 21.3619 -0.00595371 18.8267 5.25736e-05ZM23.1332 4.90601C24.4612 4.90601 25.5504 6.00323 25.5504 7.34077C25.5504 8.67832 24.4612 9.77361 23.1332 9.77361C21.8051 9.77361 20.7159 8.67832 20.7159 7.34077C20.7159 6.00323 21.8051 4.90601 23.1332 4.90601Z" fill="#FBFF00"/>
<path d="M23.1332 4.90601C24.4612 4.90601 25.5504 6.00323 25.5504 7.34077C25.5504 8.67832 24.4612 9.77361 23.1332 9.77361C21.8051 9.77361 20.7159 8.67832 20.7159 7.34077C20.7159 6.00323 21.8051 4.90601 23.1332 4.90601Z" fill="black"/>
<path d="M73.7499 2C80.7793 2 86.4998 7.72045 86.4998 14.7499V34.5831C86.4984 34.8626 86.4145 35.1355 86.2586 35.3676C86.1027 35.5996 85.8817 35.7804 85.6235 35.8874C85.3652 35.9944 85.0811 36.0227 84.8068 35.9688C84.5325 35.915 84.2802 35.7813 84.0815 35.5846L79.4165 30.9196L74.7514 35.5846C74.62 35.7163 74.4639 35.8208 74.292 35.892C74.1201 35.9633 73.9359 36 73.7499 36C73.5638 36 73.3796 35.9633 73.2077 35.892C73.0359 35.8208 72.8797 35.7163 72.7483 35.5846L68.0832 30.9196L63.4182 35.5846C63.2201 35.7827 62.9677 35.9176 62.6929 35.9722C62.4182 36.0268 62.1334 35.9988 61.8745 35.8916C61.6157 35.7844 61.3945 35.6029 61.2388 35.37C61.0831 35.137 61 34.8632 61 34.5831V14.7499C61 7.72045 66.7204 2 73.7499 2ZM76.5832 20.4165H80.8331V14.7499H77.9998V17.5832H76.5832V20.4165ZM69.4999 20.4165H73.7499V14.7499H70.9166V17.5832H69.4999V20.4165Z" fill="#F28D1A"/>
<path d="M69.4999 20.4165H73.7499V14.7499H70.9166V17.5832H69.4999V20.4165Z" fill="white"/>
<path d="M76.5832 20.4165H80.8331V14.7499H77.9998V17.5832H76.5832V20.4165Z" fill="white"/>
<path d="M105.75 2C112.779 2 118.5 7.72045 118.5 14.7499V34.5831C118.498 34.8626 118.414 35.1355 118.259 35.3676C118.103 35.5996 117.882 35.7804 117.623 35.8874C117.365 35.9944 117.081 36.0227 116.807 35.9688C116.532 35.915 116.28 35.7813 116.082 35.5846L111.416 30.9196L106.751 35.5846C106.62 35.7163 106.464 35.8208 106.292 35.892C106.12 35.9633 105.936 36 105.75 36C105.564 36 105.38 35.9633 105.208 35.892C105.036 35.8208 104.88 35.7163 104.748 35.5846L100.083 30.9196L95.4182 35.5846C95.2201 35.7827 94.9677 35.9176 94.6929 35.9722C94.4182 36.0268 94.1334 35.9988 93.8745 35.8916C93.6157 35.7844 93.3945 35.6029 93.2388 35.37C93.0831 35.137 93 34.8632 93 34.5831V14.7499C93 7.72045 98.7204 2 105.75 2ZM108.583 20.4165H112.833V14.7499H110V17.5832H108.583V20.4165ZM101.5 20.4165H105.75V14.7499H102.917V17.5832H101.5V20.4165Z" fill="#FE1F22"/>
<path d="M101.5 20.4165H105.75V14.7499H102.917V17.5832H101.5V20.4165Z" fill="white"/>
<path d="M108.583 20.4165H112.833V14.7499H110V17.5832H108.583V20.4165Z" fill="white"/>
<path d="M137.75 2C144.779 2 150.5 7.72045 150.5 14.7499V34.5831C150.498 34.8626 150.414 35.1355 150.259 35.3676C150.103 35.5996 149.882 35.7804 149.623 35.8874C149.365 35.9944 149.081 36.0227 148.807 35.9688C148.532 35.915 148.28 35.7813 148.082 35.5846L143.416 30.9196L138.751 35.5846C138.62 35.7163 138.464 35.8208 138.292 35.892C138.12 35.9633 137.936 36 137.75 36C137.564 36 137.38 35.9633 137.208 35.892C137.036 35.8208 136.88 35.7163 136.748 35.5846L132.083 30.9196L127.418 35.5846C127.22 35.7827 126.968 35.9176 126.693 35.9722C126.418 36.0268 126.133 35.9988 125.875 35.8916C125.616 35.7844 125.394 35.6029 125.239 35.37C125.083 35.137 125 34.8632 125 34.5831V14.7499C125 7.72045 130.72 2 137.75 2ZM140.583 20.4165H144.833V14.7499H142V17.5832H140.583V20.4165ZM133.5 20.4165H137.75V14.7499H134.917V17.5832H133.5V20.4165Z" fill="#FFA3C9"/>
<path d="M133.5 20.4165H137.75V14.7499H134.917V17.5832H133.5V20.4165Z" fill="white"/>
<path d="M140.583 20.4165H144.833V14.7499H142V17.5832H140.583V20.4165Z" fill="white"/>
<path d="M169.75 2C176.779 2 182.5 7.72045 182.5 14.7499V34.5831C182.498 34.8626 182.414 35.1355 182.259 35.3676C182.103 35.5996 181.882 35.7804 181.623 35.8874C181.365 35.9944 181.081 36.0227 180.807 35.9688C180.532 35.915 180.28 35.7813 180.082 35.5846L175.416 30.9196L170.751 35.5846C170.62 35.7163 170.464 35.8208 170.292 35.892C170.12 35.9633 169.936 36 169.75 36C169.564 36 169.38 35.9633 169.208 35.892C169.036 35.8208 168.88 35.7163 168.748 35.5846L164.083 30.9196L159.418 35.5846C159.22 35.7827 158.968 35.9176 158.693 35.9722C158.418 36.0268 158.133 35.9988 157.875 35.8916C157.616 35.7844 157.394 35.6029 157.239 35.37C157.083 35.137 157 34.8632 157 34.5831V14.7499C157 7.72045 162.72 2 169.75 2ZM172.583 20.4165H176.833V14.7499H174V17.5832H172.583V20.4165ZM165.5 20.4165H169.75V14.7499H166.917V17.5832H165.5V20.4165Z" fill="#25FFFF"/>
<path d="M165.5 20.4165H169.75V14.7499H166.917V17.5832H165.5V20.4165Z" fill="white"/>
<path d="M172.583 20.4165H176.833V14.7499H174V17.5832H172.583V20.4165Z" fill="white"/>
</svg>
